<svg version="1.2" width="143" height="38" xmlns="http://www.w3.org/2000/svg">
<defs><linearGradient id="gr" x1="-100%" x2="200%" gradientUnits="userSpaceOnUse"><stop offset="0" stop-color="#f2320c"><animate attributeName="offset" values="0;0.8" dur="2s" repeatCount="indefinite" /></stop><stop offset="0.1" stop-color="#ffffff"><animate attributeName="offset" values="0.1;0.9" dur="2s" repeatCount="indefinite" /></stop><stop offset="0.2" stop-color="#f2320c"><animate attributeName="offset" values="0.2;1" dur="2s" repeatCount="indefinite" /></stop></linearGradient></defs>
<path fill-rule="evenodd" d="M66.5 27.1v7.1c0 2.1.5 2.5 3.3 2.5.1 0 .1.5 0 .5-1.4 0-3.2-.1-5.1-.1-1.4 0-2.7.1-3.7.1-.2 0-.2-.5 0-.5 1.7 0 2-.4 2-2.5V17c0-1.5-.3-2.2-1.1-2.2-.5 0-1 .2-1.8.5-.1.2-.4-.3-.2-.4l5.2-2.5q.1-.1.2-.1c.4 0 1 .9 1.1 2.4 1.9-1.7 3.7-2.5 5.6-2.5 3 0 5.8 2.5 5.8 6.8 0 6.4-4.5 8.5-8.1 8.5-1.3 0-2.2-.1-3.2-.4zm0-11.6v9.2c.9 1.1 2 1.9 3.9 1.9 2.3 0 3.7-2 3.7-6.4 0-3.9-2.1-5.9-4.6-5.9-1.2 0-2.2.5-3 1.2zm27 9.4c-1.8 1.8-3.6 2.5-5.8 2.5-4.8 0-7.5-3.4-7.5-7.1 0-4.4 3.4-7.9 8.3-7.9 2.9 0 4.8 1.2 4.8 4.2 0 .7 0 1.2-.4 1.2h-9v.9c0 4.3 2 6.9 5.8 6.9 1.5 0 2.3-.4 3.6-1 .1-.1.3.2.2.3zM84 17.1l5.4-.1c-.1-2.4-.7-3.9-2.3-3.9-1.6 0-2.8 1.6-3.1 4zm24-2.7c0 1.1-.7 1.8-1.8 1.8-1.5 0-1.6-1.6-2.8-1.6-.4 0-.8.2-2.1 1.4v8c0 2 .8 2.6 3.3 2.6.2 0 .2.4 0 .4-1.3 0-3-.1-5-.1-1.4 0-2.7.1-3.7.1-.2 0-.2-.4 0-.4 1.5 0 2-.6 2-2.6v-7c0-1.5-.4-2.2-1.2-2.2q-.7 0-1.8.5c-.2.2-.3-.3-.2-.4l5.1-2.5q.2 0 .3-.1c.5 0 1.1 1 1.2 2.9 2.1-2.2 3.3-2.9 4.2-2.9 1 0 2.5.9 2.5 2.1zm15.6 11-3.8 1.8c0 .1-.2.1-.3.1-.8 0-1.6-.8-1.9-2.3l-1.6 1.1c-1.1.8-2 1.2-3.3 1.2-2.2 0-3.2-1.1-3.2-2.7 0-2.4 2.3-2.9 4.6-3.7l3.4-1.2v-2.1c0-3.1-.5-4.5-1.7-4.5-1.9 0-2.2 2.1-2.3 3-.1 1.5-.9 2.1-2.1 2.1-1.3 0-1.8-.7-1.8-1.4 0-2.5 5-4.5 7.7-4.5 2 0 3.6 1.3 3.6 4.2V23c0 1.4.6 2.3 1.5 2.3.4 0 .7-.1 1.1-.3.2-.1.4.3.1.4zm-6.1-1.1v-4l-1.6.7c-.7.3-2.3.7-2.3 2.4 0 1.3 1 1.9 1.9 1.9.3 0 .7-.1 1.2-.4zm7.4 2.2c1.5 0 2-.6 2-2.5V5.2c0-1.7-.2-2.4-1.1-2.4-.3 0-.8.1-1.4.4-.1 0-.3-.4-.2-.5l5.4-2.5q.1-.1.2-.1c.2 0 .6.3.6.5V24c0 1.9.4 2.5 2 2.5.1 0 .1.5 0 .5-1 0-2.3-.1-3.8-.1-1.4 0-2.7.1-3.7.1-.1 0-.1-.5 0-.5zm11.3-20.1c0-1.3.9-2.1 2.3-2.1s2.1.8 2.1 2.1c0 1.4-.7 2.2-2.1 2.2-1.4 0-2.3-.8-2.3-2.2zm-1.3 20.1c1.6 0 2-.6 2-2.5v-6.7c0-1.6-.3-2.3-1.1-2.3-.3 0-.8.1-1.4.4-.2 0-.3-.4-.2-.5l5.6-2.6h.1c.3 0 .6.3.6.5 0 .6-.1 1.9-.1 4.5V24c0 1.9.5 2.5 2 2.5.1 0 .1.5 0 .5-1 0-2.3-.1-3.8-.1-1.4 0-2.7.1-3.7.1-.1 0-.1-.5 0-.5z" style="fill:#ffffff"/><path fill="url(#gr)" d="M29.1.1C16.1.1.9 8.7.9 26c0 .673.03 1.338.075 2h10.088a45.646 45.646 0 0 1-.262-4.9c0-13 5.3-20.8 15.1-20.8C37.5 2.3 44.5 13.2 44.5 27.8c0 .07-.006.132-.006.2h9.78c.08-.822.126-1.655.126-2.5C54.4 12.6 44.8.1 29.1.1z"/></svg>